<svg width="32" height="32" viewBox="0 0 32 32" fill="none" xmlns="http://www.w3.org/2000/svg">
<circle cx="16" cy="16" r="15.5" stroke="#D9D9D9"/>
<path fill-rule="evenodd" clip-rule="evenodd" d="M16.1051 10C16.5208 10.0004 16.8574 10.2649 16.8568 10.5906L16.8384 21.6014C16.8379 21.9272 16.5004 22.1909 16.0847 22.1905C15.669 22.19 15.3325 21.9256 15.333 21.5998L15.3514 10.5891C15.352 10.2633 15.6894 9.99957 16.1051 10Z" fill="#002554"/>
<path fill-rule="evenodd" clip-rule="evenodd" d="M10 16.0953C10 15.6745 10.2641 15.3334 10.5899 15.3334H21.6006C21.9264 15.3334 22.1905 15.6745 22.1905 16.0953C22.1905 16.5161 21.9264 16.8572 21.6006 16.8572H10.5899C10.2641 16.8572 10 16.5161 10 16.0953Z" fill="#002554"/>
</svg>
